<svg width="227" height="55" viewBox="0 0 227 55" fill="none" xmlns="http://www.w3.org/2000/svg">
<path fill-rule="evenodd" clip-rule="evenodd" d="M18.0171 6.51149L41.8334 6.51149L48.1206 17.3534H35.9711L30.1563 27.5L18.0171 6.51149ZM48.1206 17.3534L60.3102 38.3736L36.4453 38.3736L48.1206 17.3534ZM0 16.6266H23.8649L12.1896 37.6467L0 16.6266ZM12.1896 37.6467H24.3391L30.1539 27.5002L42.2931 48.4887H18.4769L12.1896 37.6467Z" fill="url(#paint0_linear_13_1346)"/>
<path d="M84.3592 21.4092V34.5001H82.2499L76.0815 25.5832H75.9729V34.5001H73.6014V21.4092H75.7236L81.8855 30.3325H82.0006V21.4092H84.3592ZM89.6662 34.6983C89.0441 34.6983 88.4837 34.5875 87.9851 34.3659C87.4908 34.14 87.0988 33.8077 86.809 33.3687C86.5235 32.9298 86.3807 32.3886 86.3807 31.7452C86.3807 31.1912 86.483 30.7331 86.6875 30.3709C86.8921 30.0086 87.1712 29.7189 87.5249 29.5015C87.8786 29.2842 88.277 29.1202 88.7202 29.0094C89.1677 28.8943 89.63 28.8112 90.1073 28.7601C90.6826 28.7004 91.1492 28.6471 91.5072 28.6003C91.8651 28.5491 92.1251 28.4724 92.287 28.3702C92.4532 28.2636 92.5363 28.0996 92.5363 27.878V27.8396C92.5363 27.3581 92.3935 26.9852 92.108 26.721C91.8225 26.4568 91.4113 26.3247 90.8743 26.3247C90.3076 26.3247 89.858 26.4483 89.5256 26.6954C89.1975 26.9426 88.9759 27.2345 88.8608 27.5711L86.7003 27.2643C86.8708 26.6677 87.152 26.1692 87.5441 25.7686C87.9361 25.3638 88.4155 25.0612 88.9823 24.8609C89.5491 24.6564 90.1755 24.5541 90.8616 24.5541C91.3346 24.5541 91.8054 24.6095 92.2742 24.7203C92.7429 24.8311 93.1712 25.0143 93.559 25.27C93.9468 25.5214 94.2579 25.8645 94.4922 26.2991C94.7309 26.7338 94.8502 27.2771 94.8502 27.9291V34.5001H92.6258V33.1514H92.5491C92.4084 33.4241 92.2103 33.6798 91.9546 33.9184C91.7032 34.1528 91.3857 34.3425 91.0022 34.4873C90.6229 34.628 90.1776 34.6983 89.6662 34.6983ZM90.2671 32.998C90.7316 32.998 91.1343 32.9064 91.4752 32.7231C91.8161 32.5356 92.0782 32.2885 92.2614 31.9817C92.4489 31.6748 92.5427 31.3403 92.5427 30.9781V29.8211C92.4702 29.8808 92.3466 29.9362 92.1719 29.9873C92.0015 30.0385 91.8097 30.0832 91.5966 30.1216C91.3836 30.1599 91.1726 30.194 90.9638 30.2238C90.755 30.2537 90.5739 30.2792 90.4205 30.3005C90.0753 30.3474 89.7664 30.4241 89.4937 30.5307C89.2209 30.6372 89.0057 30.7863 88.8481 30.9781C88.6904 31.1656 88.6116 31.4085 88.6116 31.7068C88.6116 32.1329 88.7671 32.4547 89.0782 32.672C89.3893 32.8893 89.7856 32.998 90.2671 32.998ZM105.595 24.6819L102.099 34.5001H99.542L96.0455 24.6819H98.5128L100.769 31.9753H100.871L103.134 24.6819H105.595ZM107.196 34.5001V24.6819H109.51V34.5001H107.196ZM108.36 23.2885C107.993 23.2885 107.678 23.167 107.414 22.9241C107.15 22.677 107.017 22.3808 107.017 22.0356C107.017 21.6862 107.15 21.39 107.414 21.1471C107.678 20.9 107.993 20.7764 108.36 20.7764C108.731 20.7764 109.046 20.9 109.306 21.1471C109.57 21.39 109.702 21.6862 109.702 22.0356C109.702 22.3808 109.57 22.677 109.306 22.9241C109.046 23.167 108.731 23.2885 108.36 23.2885ZM119.65 27.2771L117.54 27.5072C117.481 27.2942 117.376 27.0939 117.227 26.9064C117.082 26.7189 116.886 26.5676 116.639 26.4525C116.392 26.3375 116.089 26.28 115.731 26.28C115.25 26.28 114.845 26.3844 114.517 26.5932C114.193 26.802 114.033 27.0726 114.038 27.405C114.033 27.6905 114.138 27.9227 114.351 28.1017C114.568 28.2807 114.926 28.4277 115.425 28.5427L117.099 28.9007C118.028 29.101 118.719 29.4184 119.17 29.8531C119.626 30.2878 119.856 30.8567 119.861 31.5598C119.856 32.1777 119.675 32.7231 119.317 33.1961C118.964 33.6649 118.471 34.0314 117.841 34.2956C117.21 34.5598 116.486 34.6919 115.667 34.6919C114.466 34.6919 113.498 34.4405 112.765 33.9376C112.033 33.4305 111.596 32.7253 111.455 31.8219L113.712 31.6045C113.814 32.0477 114.031 32.3822 114.364 32.6081C114.696 32.8339 115.128 32.9469 115.661 32.9469C116.211 32.9469 116.652 32.8339 116.984 32.6081C117.321 32.3822 117.489 32.1031 117.489 31.7707C117.489 31.4895 117.381 31.2572 117.163 31.074C116.95 30.8907 116.618 30.7501 116.166 30.6521L114.491 30.3005C113.55 30.1045 112.853 29.7743 112.401 29.3098C111.949 28.841 111.726 28.2487 111.73 27.5328C111.726 26.9277 111.89 26.4035 112.222 25.9603C112.559 25.5129 113.025 25.1677 113.622 24.9248C114.223 24.6777 114.915 24.5541 115.699 24.5541C116.85 24.5541 117.756 24.7991 118.416 25.2892C119.081 25.7792 119.492 26.4419 119.65 27.2771ZM138.033 27.9547C138.033 29.3652 137.769 30.5733 137.241 31.579C136.716 32.5804 136.001 33.3474 135.093 33.8801C134.19 34.4128 133.165 34.6791 132.018 34.6791C130.872 34.6791 129.845 34.4128 128.937 33.8801C128.034 33.3432 127.318 32.574 126.79 31.5726C126.265 30.5669 126.003 29.3609 126.003 27.9547C126.003 26.5442 126.265 25.3382 126.79 24.3368C127.318 23.3311 128.034 22.5619 128.937 22.0292C129.845 21.4966 130.872 21.2302 132.018 21.2302C133.165 21.2302 134.19 21.4966 135.093 22.0292C136.001 22.5619 136.716 23.3311 137.241 24.3368C137.769 25.3382 138.033 26.5442 138.033 27.9547ZM135.649 27.9547C135.649 26.9618 135.493 26.1244 135.182 25.4426C134.876 24.7565 134.449 24.2388 133.904 23.8893C133.359 23.5356 132.73 23.3588 132.018 23.3588C131.307 23.3588 130.678 23.5356 130.133 23.8893C129.587 24.2388 129.159 24.7565 128.848 25.4426C128.541 26.1244 128.388 26.9618 128.388 27.9547C128.388 28.9476 128.541 29.7871 128.848 30.4731C129.159 31.155 129.587 31.6727 130.133 32.0264C130.678 32.3758 131.307 32.5505 132.018 32.5505C132.73 32.5505 133.359 32.3758 133.904 32.0264C134.449 31.6727 134.876 31.155 135.182 30.4731C135.493 29.7871 135.649 28.9476 135.649 27.9547ZM145.146 24.6819V26.4717H139.342V24.6819H145.146ZM140.793 34.5001V23.7551C140.793 23.0946 140.929 22.5449 141.202 22.1059C141.479 21.667 141.85 21.3389 142.314 21.1216C142.779 20.9042 143.294 20.7956 143.861 20.7956C144.262 20.7956 144.618 20.8275 144.929 20.8915C145.24 20.9554 145.47 21.0129 145.619 21.064L145.159 22.8538C145.061 22.824 144.937 22.7942 144.788 22.7643C144.639 22.7302 144.473 22.7132 144.289 22.7132C143.859 22.7132 143.554 22.8176 143.375 23.0264C143.201 23.2309 143.113 23.525 143.113 23.9085V34.5001H140.793ZM151.931 24.6819V26.4717H146.127V24.6819H151.931ZM147.578 34.5001V23.7551C147.578 23.0946 147.715 22.5449 147.987 22.1059C148.264 21.667 148.635 21.3389 149.099 21.1216C149.564 20.9042 150.08 20.7956 150.646 20.7956C151.047 20.7956 151.403 20.8275 151.714 20.8915C152.025 20.9554 152.255 21.0129 152.404 21.064L151.944 22.8538C151.846 22.824 151.722 22.7942 151.573 22.7643C151.424 22.7302 151.258 22.7132 151.075 22.7132C150.644 22.7132 150.34 22.8176 150.161 23.0264C149.986 23.2309 149.898 23.525 149.898 23.9085V34.5001H147.578ZM153.743 34.5001V24.6819H156.057V34.5001H153.743ZM154.907 23.2885C154.54 23.2885 154.225 23.167 153.961 22.9241C153.696 22.677 153.564 22.3808 153.564 22.0356C153.564 21.6862 153.696 21.39 153.961 21.1471C154.225 20.9 154.54 20.7764 154.907 20.7764C155.277 20.7764 155.593 20.9 155.853 21.1471C156.117 21.39 156.249 21.6862 156.249 22.0356C156.249 22.3808 156.117 22.677 155.853 22.9241C155.593 23.167 155.277 23.2885 154.907 23.2885ZM162.719 34.6919C161.739 34.6919 160.898 34.4767 160.194 34.0463C159.496 33.6159 158.957 33.0214 158.577 32.2629C158.202 31.5001 158.015 30.6223 158.015 29.6294C158.015 28.6322 158.207 27.7523 158.59 26.9895C158.974 26.2224 159.515 25.6258 160.214 25.1997C160.917 24.7693 161.748 24.5541 162.707 24.5541C163.503 24.5541 164.209 24.7011 164.822 24.9952C165.44 25.2849 165.932 25.6961 166.299 26.2288C166.665 26.7572 166.874 27.3751 166.925 28.0825H164.714C164.624 27.6095 164.411 27.2153 164.074 26.9C163.742 26.5804 163.297 26.4206 162.739 26.4206C162.265 26.4206 161.85 26.5484 161.492 26.8041C161.134 27.0555 160.855 27.4177 160.655 27.8907C160.459 28.3638 160.361 28.9305 160.361 29.591C160.361 30.2601 160.459 30.8353 160.655 31.3169C160.851 31.7942 161.126 32.1628 161.479 32.4227C161.837 32.6784 162.257 32.8062 162.739 32.8062C163.079 32.8062 163.384 32.7423 163.653 32.6145C163.925 32.4824 164.153 32.2927 164.337 32.0456C164.52 31.7984 164.645 31.498 164.714 31.1443H166.925C166.87 31.8389 166.665 32.4547 166.312 32.9916C165.958 33.5243 165.476 33.9419 164.867 34.2444C164.258 34.5427 163.542 34.6919 162.719 34.6919ZM173.172 34.6919C172.188 34.6919 171.337 34.4873 170.621 34.0782C169.91 33.6649 169.362 33.0811 168.979 32.3268C168.595 31.5683 168.403 30.6755 168.403 29.6486C168.403 28.6386 168.595 27.7523 168.979 26.9895C169.367 26.2224 169.908 25.6258 170.602 25.1997C171.297 24.7693 172.113 24.5541 173.05 24.5541C173.656 24.5541 174.227 24.6521 174.764 24.8481C175.305 25.0399 175.782 25.3382 176.195 25.743C176.613 26.1478 176.941 26.6635 177.18 27.2899C177.418 27.9121 177.538 28.6535 177.538 29.5143V30.2238H169.49V28.6642H175.32C175.315 28.221 175.22 27.8268 175.032 27.4817C174.845 27.1322 174.582 26.8574 174.246 26.6571C173.913 26.4568 173.526 26.3567 173.082 26.3567C172.609 26.3567 172.194 26.4717 171.836 26.7018C171.478 26.9277 171.199 27.226 170.999 27.5967C170.803 27.9632 170.702 28.3659 170.698 28.8048V30.1663C170.698 30.7373 170.803 31.2274 171.011 31.6365C171.22 32.0413 171.512 32.3524 171.887 32.5697C172.262 32.7828 172.701 32.8893 173.204 32.8893C173.541 32.8893 173.845 32.8425 174.118 32.7487C174.391 32.6507 174.627 32.5079 174.827 32.3204C175.028 32.1329 175.179 31.9007 175.281 31.6237L177.442 31.8666C177.305 32.4376 177.046 32.9362 176.662 33.3623C176.283 33.7842 175.797 34.1123 175.205 34.3467C174.612 34.5768 173.935 34.6919 173.172 34.6919ZM183.487 23.3971V21.4092H193.932V23.3971H189.886V34.5001H187.533V23.3971H183.487ZM195.843 34.5001V24.6819H198.157V34.5001H195.843ZM197.006 23.2885C196.64 23.2885 196.324 23.167 196.06 22.9241C195.796 22.677 195.664 22.3808 195.664 22.0356C195.664 21.6862 195.796 21.39 196.06 21.1471C196.324 20.9 196.64 20.7764 197.006 20.7764C197.377 20.7764 197.692 20.9 197.952 21.1471C198.216 21.39 198.349 21.6862 198.349 22.0356C198.349 22.3808 198.216 22.677 197.952 22.9241C197.692 23.167 197.377 23.2885 197.006 23.2885ZM200.536 34.5001V24.6819H202.748V26.3503H202.863C203.068 25.7878 203.406 25.3488 203.879 25.0335C204.352 24.7139 204.917 24.5541 205.573 24.5541C206.238 24.5541 206.798 24.716 207.254 25.0399C207.715 25.3595 208.038 25.7963 208.226 26.3503H208.328C208.546 25.8048 208.912 25.3702 209.428 25.0463C209.947 24.7182 210.563 24.5541 211.275 24.5541C212.178 24.5541 212.916 24.8396 213.487 25.4106C214.058 25.9817 214.343 26.8148 214.343 27.9099V34.5001H212.023V28.2679C212.023 27.6585 211.861 27.2132 211.537 26.9319C211.213 26.6464 210.817 26.5037 210.348 26.5037C209.79 26.5037 209.353 26.6784 209.038 27.0278C208.727 27.373 208.571 27.8226 208.571 28.3765V34.5001H206.302V28.172C206.302 27.6649 206.148 27.2601 205.842 26.9575C205.539 26.655 205.143 26.5037 204.653 26.5037C204.32 26.5037 204.018 26.5889 203.745 26.7594C203.472 26.9255 203.255 27.1621 203.093 27.4689C202.931 27.7714 202.85 28.1251 202.85 28.53V34.5001H200.536ZM221.037 34.6919C220.053 34.6919 219.203 34.4873 218.487 34.0782C217.775 33.6649 217.228 33.0811 216.844 32.3268C216.46 31.5683 216.269 30.6755 216.269 29.6486C216.269 28.6386 216.46 27.7523 216.844 26.9895C217.232 26.2224 217.773 25.6258 218.468 25.1997C219.162 24.7693 219.978 24.5541 220.916 24.5541C221.521 24.5541 222.092 24.6521 222.629 24.8481C223.17 25.0399 223.647 25.3382 224.061 25.743C224.478 26.1478 224.806 26.6635 225.045 27.2899C225.284 27.9121 225.403 28.6535 225.403 29.5143V30.2238H217.355V28.6642H223.185C223.181 28.221 223.085 27.8268 222.897 27.4817C222.71 27.1322 222.448 26.8574 222.111 26.6571C221.779 26.4568 221.391 26.3567 220.948 26.3567C220.475 26.3567 220.059 26.4717 219.701 26.7018C219.343 26.9277 219.064 27.226 218.864 27.5967C218.668 27.9632 218.568 28.3659 218.563 28.8048V30.1663C218.563 30.7373 218.668 31.2274 218.877 31.6365C219.085 32.0413 219.377 32.3524 219.752 32.5697C220.127 32.7828 220.566 32.8893 221.069 32.8893C221.406 32.8893 221.71 32.8425 221.983 32.7487C222.256 32.6507 222.492 32.5079 222.693 32.3204C222.893 32.1329 223.044 31.9007 223.147 31.6237L225.307 31.8666C225.171 32.4376 224.911 32.9362 224.527 33.3623C224.148 33.7842 223.662 34.1123 223.07 34.3467C222.478 34.5768 221.8 34.6919 221.037 34.6919Z" fill="#1C1C1C"/>
<defs>
<linearGradient id="paint0_linear_13_1346" x1="5.44802" y1="43.2426" x2="55.2845" y2="10.836" gradientUnits="userSpaceOnUse">
<stop offset="0.118519" stop-color="#D4151C"/>
<stop offset="1" stop-color="#D35400"/>
</linearGradient>
</defs>
</svg>
